# xmcd
#
# Track frame offsets:
#	150
#	10427
#	21104
#	31952
#	42632
#	55174
#	66529
#	77713
#	88801
#	97389
#	108399
#	118878
#	129192
#	140258
#	151778
#	166280
#	177632
#	187982
#	198444
#	209531
#
# Disc length: 2957 seconds
#
# Revision: 0
# Processed by: cddbd v1.5.1PL2 Copyright (c) Steve Scherf et al.
# Submitted via: dBpowerAMP V4.0
#
DISCID=220b8b14
DTITLE=Patsy Cline - The Queen of Country
DYEAR=1900
DGENRE=Country
TTITLE0=Three cigarettes in an ashtray
TTITLE1=Stop Look and Listen
TTITLE2=I don't wanta
TTITLE3=Honky Tonk Merry-go-round
TTITLE4=Fingerprints
TTITLE5=Cry not for me
TTITLE6=Hidin' out
TTITLE7=A stranger in my arms
TTITLE8=Come on in
TTITLE9=I can't forget you
TTITLE10=I love you honey
TTITLE11=Pick me up (on you way down)
TTITLE12=Stop the world and let me off
TTITLE13=The heart you break may be your own
TTITLE14=Then you'll know
TTITLE15=I got to church on Sunday
TTITLE16=How can I face tomorrow
TTITLE17=He'll do for you (what he's done for me)
TTITLE18=Don't ever leave me again
TTITLE19=A poor man's roses (or a rich man's gold)
EXTD=
EXTT0=
EXTT1=
EXTT2=
EXTT3=
EXTT4=
EXTT5=
EXTT6=
EXTT7=
EXTT8=
EXTT9=
EXTT10=
EXTT11=
EXTT12=
EXTT13=
EXTT14=
EXTT15=
EXTT16=
EXTT17=
EXTT18=
EXTT19=
PLAYORDER=
